<svg width="606" height="52" viewBox="0 0 606 52" fill="none" xmlns="http://www.w3.org/2000/svg">
<rect width="606" height="52" rx="24" fill="#353535"/>
<circle cx="87.9444" cy="26.0556" r="8.05556" fill="#66FF4E"/>
<circle cx="46.0556" cy="26.0556" r="8.05556" fill="#FF5E5E"/>
<circle cx="67" cy="26.0556" r="8.05556" fill="#FFEC43"/>
<path d="M117.852 31V29.4234H119.38V22.1614H117.852V20.5947H121.065L121.469 23.0088C121.856 22.1351 122.336 21.4716 122.907 21.0184C123.485 20.5585 124.228 20.3286 125.134 20.3286C125.443 20.3286 125.719 20.3549 125.962 20.4075C126.212 20.4534 126.458 20.5158 126.701 20.5947L126.326 24.4277H124.75V22.3092C124.014 22.3355 123.38 22.6311 122.848 23.196C122.316 23.7544 121.896 24.5427 121.587 25.5609V29.4234H123.686V31H117.852ZM131.403 26.5068C131.469 27.5775 131.768 28.3527 132.3 28.8322C132.839 29.3118 133.486 29.5515 134.241 29.5515C134.747 29.5515 135.217 29.4727 135.65 29.315C136.09 29.1574 136.53 28.934 136.97 28.645L137.926 29.9654C137.44 30.3595 136.872 30.6748 136.222 30.9113C135.571 31.1478 134.875 31.266 134.133 31.266C133.049 31.266 132.132 31.0361 131.384 30.5763C130.641 30.1165 130.076 29.476 129.689 28.6549C129.308 27.8337 129.117 26.8845 129.117 25.8072C129.117 24.7627 129.308 23.8299 129.689 23.0088C130.07 22.1811 130.615 21.5275 131.324 21.0479C132.034 20.5618 132.881 20.3188 133.867 20.3188C135.246 20.3188 136.337 20.7819 137.138 21.7081C137.946 22.6344 138.35 23.9055 138.35 25.5214C138.35 25.6988 138.343 25.8762 138.33 26.0535C138.324 26.2243 138.314 26.3754 138.301 26.5068H131.403ZM133.886 21.9545C133.197 21.9545 132.625 22.2008 132.172 22.6935C131.719 23.1862 131.459 23.9547 131.393 24.9992H136.212C136.192 24.0204 135.982 23.2683 135.581 22.7427C135.187 22.2172 134.622 21.9545 133.886 21.9545ZM146.402 29.453C146.889 29.453 147.342 29.3676 147.762 29.1968C148.183 29.026 148.583 28.8092 148.964 28.5465L149.989 29.9654C149.536 30.353 148.984 30.6683 148.334 30.9113C147.69 31.1478 147.023 31.266 146.333 31.266C145.269 31.266 144.356 31.0427 143.594 30.596C142.839 30.1427 142.261 29.5121 141.86 28.7041C141.466 27.8896 141.269 26.9371 141.269 25.8466C141.269 24.789 141.469 23.8463 141.87 23.0186C142.277 22.1844 142.862 21.5275 143.624 21.0479C144.386 20.5618 145.302 20.3188 146.373 20.3188C147.766 20.3188 148.968 20.7359 149.979 21.5702L148.964 22.9595C148.557 22.6771 148.14 22.4636 147.713 22.319C147.286 22.168 146.852 22.0924 146.412 22.0924C145.585 22.0924 144.911 22.3946 144.392 22.9989C143.873 23.6033 143.614 24.5525 143.614 25.8466C143.614 27.1473 143.877 28.0735 144.402 28.6253C144.928 29.1771 145.594 29.453 146.402 29.453ZM155.036 26.5068C155.102 27.5775 155.401 28.3527 155.933 28.8322C156.472 29.3118 157.119 29.5515 157.874 29.5515C158.38 29.5515 158.85 29.4727 159.283 29.315C159.723 29.1574 160.163 28.934 160.604 28.645L161.559 29.9654C161.073 30.3595 160.505 30.6748 159.855 30.9113C159.204 31.1478 158.508 31.266 157.766 31.266C156.682 31.266 155.765 31.0361 155.017 30.5763C154.274 30.1165 153.709 29.476 153.322 28.6549C152.941 27.8337 152.75 26.8845 152.75 25.8072C152.75 24.7627 152.941 23.8299 153.322 23.0088C153.703 22.1811 154.248 21.5275 154.957 21.0479C155.667 20.5618 156.514 20.3188 157.5 20.3188C158.879 20.3188 159.97 20.7819 160.771 21.7081C161.579 22.6344 161.983 23.9055 161.983 25.5214C161.983 25.6988 161.976 25.8762 161.963 26.0535C161.957 26.2243 161.947 26.3754 161.934 26.5068H155.036ZM157.519 21.9545C156.83 21.9545 156.258 22.2008 155.805 22.6935C155.352 23.1862 155.092 23.9547 155.026 24.9992H159.845C159.825 24.0204 159.615 23.2683 159.214 22.7427C158.82 22.2172 158.255 21.9545 157.519 21.9545ZM170.095 20.3188C171.014 20.3188 171.75 20.5454 172.302 20.9987C172.854 21.4454 173.254 22.0793 173.504 22.9004C173.754 23.715 173.878 24.674 173.878 25.7776C173.878 26.8352 173.727 27.7779 173.425 28.6056C173.123 29.4333 172.673 30.0836 172.075 30.5566C171.484 31.0296 170.748 31.266 169.868 31.266C168.778 31.266 167.897 30.8818 167.227 30.1132V35.0005L165.02 35.2469V20.5947H166.942L167.079 21.9348C167.474 21.4027 167.93 21.002 168.449 20.7326C168.968 20.4567 169.517 20.3188 170.095 20.3188ZM169.484 22.0234C168.991 22.0234 168.554 22.1712 168.173 22.4668C167.799 22.7625 167.483 23.1106 167.227 23.5113V28.379C167.746 29.1541 168.433 29.5417 169.287 29.5417C170.029 29.5417 170.594 29.2428 170.981 28.645C171.369 28.0472 171.563 27.0947 171.563 25.7875C171.563 24.454 171.389 23.4949 171.041 22.9103C170.699 22.319 170.18 22.0234 169.484 22.0234ZM181.852 29.453C182.338 29.453 182.791 29.3676 183.212 29.1968C183.632 29.026 184.033 28.8092 184.414 28.5465L185.439 29.9654C184.985 30.353 184.434 30.6683 183.783 30.9113C183.14 31.1478 182.473 31.266 181.783 31.266C180.719 31.266 179.806 31.0427 179.044 30.596C178.288 30.1427 177.71 29.5121 177.31 28.7041C176.915 27.8896 176.718 26.9371 176.718 25.8466C176.718 24.789 176.919 23.8463 177.319 23.0186C177.727 22.1844 178.311 21.5275 179.073 21.0479C179.835 20.5618 180.752 20.3188 181.822 20.3188C183.215 20.3188 184.417 20.7359 185.429 21.5702L184.414 22.9595C184.007 22.6771 183.59 22.4636 183.163 22.319C182.736 22.168 182.302 22.0924 181.862 22.0924C181.034 22.0924 180.361 22.3946 179.842 22.9989C179.323 23.6033 179.063 24.5525 179.063 25.8466C179.063 27.1473 179.326 28.0735 179.852 28.6253C180.377 29.1771 181.044 29.453 181.852 29.453ZM182.404 33.7984C182.404 33.4831 182.249 33.2762 181.941 33.1776C181.639 33.0791 181.212 33.0298 180.66 33.0298L180.867 30.6847H182.226V32.0543C182.89 32.12 183.373 32.3171 183.675 32.6455C183.984 32.9806 184.138 33.3714 184.138 33.8181C184.138 34.475 183.885 34.9808 183.379 35.3356C182.874 35.6968 182.256 35.8775 181.527 35.8775C181.106 35.8775 180.706 35.8249 180.325 35.7198C179.95 35.6213 179.632 35.4965 179.369 35.3454L179.98 34.2122C180.387 34.429 180.821 34.5374 181.281 34.5374C181.616 34.5374 181.885 34.4816 182.089 34.3699C182.299 34.2582 182.404 34.0677 182.404 33.7984ZM196.605 28.4479C196.605 28.8618 196.667 29.1607 196.792 29.3446C196.917 29.5285 197.117 29.6665 197.393 29.7585L196.901 31.2562C196.388 31.1971 195.945 31.0558 195.57 30.8325C195.202 30.6091 194.927 30.2708 194.743 29.8176C194.362 30.3037 193.879 30.6683 193.294 30.9113C192.709 31.1478 192.085 31.266 191.422 31.266C190.364 31.266 189.53 30.9704 188.919 30.3792C188.308 29.7814 188.003 28.9997 188.003 28.0341C188.003 26.9371 188.43 26.0929 189.284 25.5017C190.138 24.9105 191.36 24.6149 192.949 24.6149H194.437V23.935C194.437 23.2584 194.234 22.7756 193.826 22.4866C193.419 22.1909 192.851 22.0431 192.122 22.0431C191.78 22.0431 191.366 22.0891 190.88 22.1811C190.394 22.2665 189.885 22.4012 189.353 22.5851L188.811 21.0282C189.461 20.7852 190.098 20.6078 190.722 20.4961C191.346 20.3779 191.924 20.3188 192.457 20.3188C193.849 20.3188 194.887 20.6275 195.57 21.245C196.26 21.8625 196.605 22.7165 196.605 23.8069V28.4479ZM192.092 29.6402C192.539 29.6402 192.976 29.522 193.403 29.2855C193.83 29.049 194.174 28.7173 194.437 28.2903V25.9944H193.215C192.177 25.9944 191.435 26.1685 190.988 26.5166C190.542 26.8582 190.318 27.3312 190.318 27.9356C190.318 29.072 190.91 29.6402 192.092 29.6402ZM193.797 18.2003C193.435 18.2003 193.127 18.1247 192.87 17.9736C192.621 17.816 192.391 17.6616 192.181 17.5105C191.97 17.3529 191.75 17.274 191.521 17.274C191.291 17.274 191.097 17.3496 190.939 17.5007C190.788 17.6518 190.634 17.8751 190.476 18.1707L189.234 17.5499C189.464 17.0244 189.767 16.5744 190.141 16.2C190.522 15.8256 190.975 15.6384 191.501 15.6384C191.882 15.6384 192.197 15.7172 192.447 15.8748C192.696 16.0259 192.923 16.1803 193.127 16.338C193.33 16.489 193.55 16.5646 193.787 16.5646C193.99 16.5646 194.171 16.4956 194.329 16.3577C194.486 16.2131 194.654 15.9964 194.831 15.7073L196.073 16.3182C195.817 16.9095 195.495 17.3726 195.107 17.7076C194.72 18.036 194.283 18.2003 193.797 18.2003ZM204.638 20.3188C206.162 20.3188 207.324 20.8147 208.126 21.8067C208.927 22.7986 209.328 24.1222 209.328 25.7776C209.328 26.8812 209.144 27.8436 208.776 28.6647C208.415 29.4858 207.883 30.1263 207.18 30.5862C206.484 31.0394 205.633 31.266 204.628 31.266C203.11 31.266 201.948 30.7767 201.14 29.7979C200.332 28.8125 199.928 27.479 199.928 25.7973C199.928 24.72 200.108 23.7708 200.47 22.9497C200.838 22.122 201.373 21.4782 202.076 21.0184C202.779 20.552 203.633 20.3188 204.638 20.3188ZM204.638 22.0333C203.843 22.0333 203.245 22.3387 202.844 22.9497C202.444 23.554 202.243 24.5032 202.243 25.7973C202.243 27.0914 202.44 28.0439 202.835 28.6549C203.235 29.2592 203.833 29.5614 204.628 29.5614C205.423 29.5614 206.017 29.2559 206.411 28.645C206.812 28.0341 207.012 27.0783 207.012 25.7776C207.012 24.4967 206.815 23.554 206.421 22.9497C206.027 22.3387 205.433 22.0333 204.638 22.0333ZM230.212 16.1704L232.419 16.4168V31H230.478L230.32 29.719C229.966 30.2117 229.542 30.5927 229.049 30.8621C228.557 31.1314 228.005 31.266 227.394 31.266C226.5 31.266 225.765 31.0394 225.187 30.5862C224.615 30.1263 224.188 29.4858 223.906 28.6647C223.623 27.8436 223.482 26.8878 223.482 25.7973C223.482 24.7397 223.646 23.8004 223.975 22.9792C224.303 22.1515 224.773 21.5012 225.384 21.0282C225.995 20.5553 226.73 20.3188 227.591 20.3188C228.662 20.3188 229.535 20.6965 230.212 21.4519V16.1704ZM228.172 22.0136C227.43 22.0136 226.852 22.3223 226.438 22.9398C226.024 23.5507 225.817 24.5032 225.817 25.7973C225.817 27.1243 226.004 28.0866 226.379 28.6844C226.76 29.2756 227.292 29.5712 227.975 29.5712C228.474 29.5712 228.908 29.4267 229.276 29.1377C229.644 28.8486 229.956 28.5005 230.212 28.0932V23.1664C229.956 22.7986 229.657 22.5161 229.315 22.319C228.974 22.1154 228.593 22.0136 228.172 22.0136ZM237.752 26.5068C237.818 27.5775 238.117 28.3527 238.649 28.8322C239.187 29.3118 239.834 29.5515 240.59 29.5515C241.096 29.5515 241.565 29.4727 241.999 29.315C242.439 29.1574 242.879 28.934 243.319 28.645L244.275 29.9654C243.789 30.3595 243.221 30.6748 242.57 30.9113C241.92 31.1478 241.224 31.266 240.481 31.266C239.398 31.266 238.481 31.0361 237.732 30.5763C236.99 30.1165 236.425 29.476 236.038 28.6549C235.657 27.8337 235.466 26.8845 235.466 25.8072C235.466 24.7627 235.657 23.8299 236.038 23.0088C236.419 22.1811 236.964 21.5275 237.673 21.0479C238.383 20.5618 239.23 20.3188 240.215 20.3188C241.595 20.3188 242.685 20.7819 243.487 21.7081C244.295 22.6344 244.699 23.9055 244.699 25.5214C244.699 25.6988 244.692 25.8762 244.679 26.0535C244.672 26.2243 244.663 26.3754 244.649 26.5068H237.752ZM240.235 21.9545C239.545 21.9545 238.974 22.2008 238.521 22.6935C238.067 23.1862 237.808 23.9547 237.742 24.9992H242.561C242.541 24.0204 242.331 23.2683 241.93 22.7427C241.536 22.2172 240.971 21.9545 240.235 21.9545ZM264.568 29.453C265.054 29.453 265.507 29.3676 265.928 29.1968C266.348 29.026 266.749 28.8092 267.13 28.5465L268.154 29.9654C267.701 30.353 267.149 30.6683 266.499 30.9113C265.855 31.1478 265.189 31.266 264.499 31.266C263.435 31.266 262.522 31.0427 261.76 30.596C261.004 30.1427 260.426 29.5121 260.025 28.7041C259.631 27.8896 259.434 26.9371 259.434 25.8466C259.434 24.789 259.634 23.8463 260.035 23.0186C260.442 22.1844 261.027 21.5275 261.789 21.0479C262.551 20.5618 263.467 20.3188 264.538 20.3188C265.931 20.3188 267.133 20.7359 268.145 21.5702L267.13 22.9595C266.722 22.6771 266.305 22.4636 265.878 22.319C265.451 22.168 265.018 22.0924 264.578 22.0924C263.75 22.0924 263.077 22.3946 262.558 22.9989C262.039 23.6033 261.779 24.5525 261.779 25.8466C261.779 27.1473 262.042 28.0735 262.568 28.6253C263.093 29.1771 263.76 29.453 264.568 29.453ZM279.321 28.4479C279.321 28.8618 279.383 29.1607 279.508 29.3446C279.633 29.5285 279.833 29.6665 280.109 29.7585L279.616 31.2562C279.104 31.1971 278.66 31.0558 278.286 30.8325C277.918 30.6091 277.642 30.2708 277.458 29.8176C277.077 30.3037 276.595 30.6683 276.01 30.9113C275.425 31.1478 274.801 31.266 274.138 31.266C273.08 31.266 272.246 30.9704 271.635 30.3792C271.024 29.7814 270.719 28.9997 270.719 28.0341C270.719 26.9371 271.146 26.0929 271.999 25.5017C272.853 24.9105 274.075 24.6149 275.665 24.6149H277.153V23.935C277.153 23.2584 276.949 22.7756 276.542 22.4866C276.135 22.1909 275.566 22.0431 274.837 22.0431C274.496 22.0431 274.082 22.0891 273.596 22.1811C273.11 22.2665 272.601 22.4012 272.068 22.5851L271.527 21.0282C272.177 20.7852 272.814 20.6078 273.438 20.4961C274.062 20.3779 274.64 20.3188 275.172 20.3188C276.565 20.3188 277.603 20.6275 278.286 21.245C278.976 21.8625 279.321 22.7165 279.321 23.8069V28.4479ZM274.808 29.6402C275.254 29.6402 275.691 29.522 276.118 29.2855C276.545 29.049 276.89 28.7173 277.153 28.2903V25.9944H275.931C274.893 25.9944 274.151 26.1685 273.704 26.5166C273.257 26.8582 273.034 27.3312 273.034 27.9356C273.034 29.072 273.625 29.6402 274.808 29.6402ZM287.757 16.4168V28.1622C287.757 28.6417 287.902 28.9833 288.191 29.187C288.487 29.384 288.868 29.4826 289.334 29.4826C289.63 29.4826 289.912 29.453 290.181 29.3939C290.457 29.3282 290.723 29.2428 290.98 29.1377L291.541 30.6748C291.232 30.8325 290.851 30.9704 290.398 31.0887C289.951 31.2069 289.439 31.266 288.861 31.266C287.817 31.266 287.002 30.9704 286.417 30.3792C285.839 29.788 285.55 28.9833 285.55 27.9651V18.0426H282.407V16.4168H287.757ZM299.17 20.3188C300.694 20.3188 301.857 20.8147 302.658 21.8067C303.46 22.7986 303.86 24.1222 303.86 25.7776C303.86 26.8812 303.676 27.8436 303.308 28.6647C302.947 29.4858 302.415 30.1263 301.712 30.5862C301.016 31.0394 300.165 31.266 299.16 31.266C297.643 31.266 296.48 30.7767 295.672 29.7979C294.864 28.8125 294.46 27.479 294.46 25.7973C294.46 24.72 294.641 23.7708 295.002 22.9497C295.37 22.122 295.905 21.4782 296.608 21.0184C297.311 20.552 298.165 20.3188 299.17 20.3188ZM299.17 22.0333C298.375 22.0333 297.777 22.3387 297.377 22.9497C296.976 23.554 296.776 24.5032 296.776 25.7973C296.776 27.0914 296.973 28.0439 297.367 28.6549C297.768 29.2592 298.365 29.5614 299.16 29.5614C299.955 29.5614 300.549 29.2559 300.944 28.645C301.344 28.0341 301.545 27.0783 301.545 25.7776C301.545 24.4967 301.348 23.554 300.953 22.9497C300.559 22.3387 299.965 22.0333 299.17 22.0333ZM309.026 20.5947V27.8666C309.026 28.4841 309.147 28.9242 309.39 29.187C309.64 29.4497 310.014 29.5811 310.514 29.5811C310.987 29.5811 311.443 29.4399 311.883 29.1574C312.323 28.8749 312.671 28.53 312.928 28.1228V20.5947H315.135V31H313.233L313.095 29.6698C312.708 30.1887 312.218 30.5862 311.627 30.8621C311.036 31.1314 310.431 31.266 309.814 31.266C308.802 31.266 308.05 30.9901 307.557 30.4383C307.065 29.88 306.818 29.1147 306.818 28.1425V20.5947H309.026ZM318.734 31V29.4234H320.261V22.1614H318.734V20.5947H321.946L322.35 23.0088C322.737 22.1351 323.217 21.4716 323.788 21.0184C324.366 20.5585 325.109 20.3286 326.015 20.3286C326.324 20.3286 326.6 20.3549 326.843 20.4075C327.093 20.4534 327.339 20.5158 327.582 20.5947L327.208 24.4277H325.631V22.3092C324.895 22.3355 324.261 22.6311 323.729 23.196C323.197 23.7544 322.777 24.5427 322.468 25.5609V29.4234H324.567V31H318.734ZM334.62 20.3188C336.144 20.3188 337.306 20.8147 338.108 21.8067C338.909 22.7986 339.31 24.1222 339.31 25.7776C339.31 26.8812 339.126 27.8436 338.758 28.6647C338.397 29.4858 337.865 30.1263 337.162 30.5862C336.465 31.0394 335.615 31.266 334.61 31.266C333.092 31.266 331.93 30.7767 331.122 29.7979C330.314 28.8125 329.91 27.479 329.91 25.7973C329.91 24.72 330.09 23.7708 330.452 22.9497C330.819 22.122 331.355 21.4782 332.058 21.0184C332.761 20.552 333.615 20.3188 334.62 20.3188ZM334.62 22.0333C333.825 22.0333 333.227 22.3387 332.826 22.9497C332.426 23.554 332.225 24.5032 332.225 25.7973C332.225 27.0914 332.422 28.0439 332.816 28.6549C333.217 29.2592 333.815 29.5614 334.61 29.5614C335.405 29.5614 335.999 29.2559 336.393 28.645C336.794 28.0341 336.994 27.0783 336.994 25.7776C336.994 24.4967 336.797 23.554 336.403 22.9497C336.009 22.3387 335.414 22.0333 334.62 22.0333ZM346.052 29.5712C346.742 29.5712 347.29 29.4497 347.697 29.2067C348.105 28.957 348.308 28.6154 348.308 28.1819C348.308 27.8994 348.249 27.6597 348.131 27.4626C348.013 27.2655 347.776 27.0816 347.421 26.9108C347.067 26.74 346.528 26.5626 345.805 26.3787C345.122 26.2013 344.521 25.9911 344.002 25.7481C343.49 25.505 343.092 25.1897 342.81 24.8021C342.528 24.4146 342.386 23.9153 342.386 23.3044C342.386 22.411 342.757 21.6917 343.5 21.1465C344.249 20.5947 345.264 20.3188 346.545 20.3188C347.418 20.3188 348.18 20.4337 348.831 20.6636C349.481 20.8936 350.036 21.1793 350.496 21.5209L349.57 22.9103C349.162 22.6409 348.716 22.4209 348.229 22.2501C347.75 22.0793 347.208 21.9939 346.604 21.9939C345.901 21.9939 345.395 22.099 345.086 22.3092C344.784 22.5194 344.633 22.7986 344.633 23.1467C344.633 23.4095 344.708 23.6263 344.86 23.7971C345.017 23.9679 345.287 24.1288 345.668 24.2799C346.049 24.431 346.587 24.6018 347.284 24.7923C347.96 24.9762 348.548 25.193 349.047 25.4426C349.553 25.6922 349.944 26.024 350.22 26.4378C350.502 26.8451 350.644 27.3772 350.644 28.0341C350.644 28.783 350.427 29.3972 349.993 29.8767C349.56 30.3497 348.995 30.7011 348.298 30.931C347.602 31.1544 346.853 31.266 346.052 31.266C345.086 31.266 344.252 31.1281 343.549 30.8522C342.846 30.5697 342.255 30.2183 341.775 29.7979L342.948 28.4578C343.355 28.7862 343.822 29.0556 344.347 29.2658C344.873 29.4694 345.441 29.5712 346.052 29.5712ZM369.508 17.1262C370.427 17.1262 371.209 17.3003 371.853 17.6485C372.496 17.9901 372.986 18.4532 373.321 19.0378C373.662 19.6159 373.833 20.2597 373.833 20.9691C373.833 21.5669 373.728 22.1515 373.518 22.723C373.314 23.288 372.983 23.8858 372.523 24.5164C372.069 25.1404 371.468 25.8368 370.72 26.6053C369.971 27.3673 369.054 28.241 367.97 29.2264H374.149L373.892 31H365.438V29.3249C366.66 28.149 367.665 27.1506 368.453 26.3294C369.248 25.5083 369.869 24.7988 370.316 24.2011C370.769 23.6033 371.087 23.0646 371.271 22.5851C371.455 22.099 371.547 21.6063 371.547 21.1071C371.547 20.4239 371.353 19.8852 370.966 19.4911C370.578 19.0969 370.04 18.8999 369.35 18.8999C368.739 18.8999 368.227 19.0115 367.813 19.2349C367.405 19.4582 367.001 19.8195 366.601 20.3188L365.162 19.225C365.694 18.5484 366.305 18.0295 366.995 17.6682C367.685 17.3069 368.522 17.1262 369.508 17.1262ZM381.876 17.1262C383.4 17.1262 384.553 17.7404 385.334 18.9688C386.116 20.1972 386.507 21.9348 386.507 24.1814C386.507 26.4411 386.116 28.1885 385.334 29.4234C384.553 30.6518 383.4 31.266 381.876 31.266C380.352 31.266 379.199 30.6518 378.417 29.4234C377.636 28.1885 377.245 26.4411 377.245 24.1814C377.245 21.9348 377.636 20.1972 378.417 18.9688C379.199 17.7404 380.352 17.1262 381.876 17.1262ZM381.876 18.8112C381.094 18.8112 380.493 19.2283 380.073 20.0626C379.652 20.8903 379.442 22.2632 379.442 24.1814C379.442 25.5806 379.527 26.671 379.698 27.4527L383.541 19.6093C383.351 19.3269 383.117 19.1232 382.842 18.9984C382.566 18.8736 382.244 18.8112 381.876 18.8112ZM384.31 24.1814C384.31 22.9267 384.241 21.9249 384.103 21.176L380.309 28.9209C380.664 29.361 381.186 29.5811 381.876 29.5811C382.664 29.5811 383.265 29.1672 383.679 28.3395C384.099 27.5119 384.31 26.1258 384.31 24.1814ZM393.141 17.1262C394.06 17.1262 394.842 17.3003 395.486 17.6485C396.129 17.9901 396.619 18.4532 396.954 19.0378C397.295 19.6159 397.466 20.2597 397.466 20.9691C397.466 21.5669 397.361 22.1515 397.151 22.723C396.947 23.288 396.616 23.8858 396.156 24.5164C395.703 25.1404 395.101 25.8368 394.353 26.6053C393.604 27.3673 392.687 28.241 391.603 29.2264H397.782L397.525 31H389.071V29.3249C390.293 28.149 391.298 27.1506 392.086 26.3294C392.881 25.5083 393.502 24.7988 393.949 24.2011C394.402 23.6033 394.72 23.0646 394.904 22.5851C395.088 22.099 395.18 21.6063 395.18 21.1071C395.18 20.4239 394.986 19.8852 394.599 19.4911C394.211 19.0969 393.673 18.8999 392.983 18.8999C392.372 18.8999 391.86 19.0115 391.446 19.2349C391.039 19.4582 390.635 19.8195 390.234 20.3188L388.795 19.225C389.327 18.5484 389.938 18.0295 390.628 17.6682C391.318 17.3069 392.155 17.1262 393.141 17.1262ZM410.042 29.2658V31H401.814V29.2658H405.134V19.6684L402.139 21.5111L401.193 19.964L405.371 17.4021H407.322V29.2658H410.042Z" fill="#EEEEEE"/>
</svg>
