<svg width="1216" height="1157" viewBox="0 0 1216 1157" fill="none" xmlns="http://www.w3.org/2000/svg">
<rect width="1216" height="1157" rx="24" fill="#353535"/>
<rect x="28" y="50" width="1160" height="1067" rx="22.5789" fill="#494949"/>
<circle cx="100" cy="26" r="10" fill="#66FF4E"/>
<circle cx="48" cy="26" r="10" fill="#FF5E5E"/>
<circle cx="74" cy="26" r="10" fill="#FFEC43"/>
<path d="M132.275 36V34.0637H134.151V25.1445H132.275V23.2203H136.22L136.717 26.1853C137.193 25.1122 137.782 24.2974 138.483 23.7407C139.193 23.1759 140.105 22.8936 141.219 22.8936C141.598 22.8936 141.937 22.9258 142.235 22.9904C142.542 23.0468 142.844 23.1235 143.143 23.2203L142.683 27.928H140.747V25.3261C139.843 25.3583 139.064 25.7214 138.411 26.4152C137.757 27.101 137.241 28.0692 136.862 29.3197V34.0637H139.44V36H132.275ZM148.918 30.4815C148.999 31.7966 149.366 32.7486 150.019 33.3376C150.681 33.9265 151.476 34.221 152.403 34.221C153.025 34.221 153.602 34.1242 154.134 33.9306C154.675 33.7369 155.215 33.4626 155.756 33.1076L156.93 34.7293C156.333 35.2134 155.635 35.6006 154.836 35.8911C154.037 36.1815 153.182 36.3268 152.27 36.3268C150.939 36.3268 149.814 36.0444 148.894 35.4796C147.982 34.9149 147.288 34.1282 146.812 33.1197C146.344 32.1112 146.11 30.9454 146.11 29.6223C146.11 28.3394 146.344 27.1938 146.812 26.1853C147.28 25.1687 147.95 24.366 148.821 23.777C149.693 23.18 150.733 22.8814 151.944 22.8814C153.638 22.8814 154.977 23.4502 155.961 24.5878C156.954 25.7254 157.45 27.2866 157.45 29.2713C157.45 29.4891 157.442 29.707 157.426 29.9248C157.418 30.1346 157.406 30.3201 157.389 30.4815H148.918ZM151.968 24.8904C151.121 24.8904 150.419 25.1929 149.862 25.798C149.305 26.4031 148.987 27.3471 148.906 28.6299H154.824C154.8 27.4278 154.541 26.504 154.049 25.8585C153.565 25.2131 152.871 24.8904 151.968 24.8904ZM167.34 34.1C167.937 34.1 168.494 33.9951 169.01 33.7853C169.526 33.5756 170.018 33.3093 170.486 32.9866L171.745 34.7293C171.188 35.2053 170.511 35.5926 169.712 35.8911C168.921 36.1815 168.102 36.3268 167.255 36.3268C165.948 36.3268 164.827 36.0524 163.891 35.5038C162.963 34.9471 162.253 34.1726 161.761 33.1802C161.277 32.1798 161.035 31.0099 161.035 29.6707C161.035 28.3717 161.281 27.214 161.773 26.1974C162.273 25.1728 162.991 24.366 163.927 23.777C164.863 23.18 165.989 22.8814 167.304 22.8814C169.014 22.8814 170.49 23.3938 171.733 24.4184L170.486 26.1248C169.986 25.7779 169.474 25.5156 168.949 25.3382C168.425 25.1526 167.893 25.0598 167.352 25.0598C166.335 25.0598 165.508 25.4309 164.871 26.1732C164.234 26.9154 163.915 28.0813 163.915 29.6707C163.915 31.2681 164.238 32.4057 164.883 33.0834C165.529 33.7611 166.348 34.1 167.34 34.1ZM177.944 30.4815C178.025 31.7966 178.392 32.7486 179.045 33.3376C179.707 33.9265 180.501 34.221 181.429 34.221C182.051 34.221 182.627 34.1242 183.16 33.9306C183.7 33.7369 184.241 33.4626 184.782 33.1076L185.955 34.7293C185.358 35.2134 184.66 35.6006 183.862 35.8911C183.063 36.1815 182.208 36.3268 181.296 36.3268C179.965 36.3268 178.839 36.0444 177.92 35.4796C177.008 34.9149 176.314 34.1282 175.838 33.1197C175.37 32.1112 175.136 30.9454 175.136 29.6223C175.136 28.3394 175.37 27.1938 175.838 26.1853C176.306 25.1687 176.976 24.366 177.847 23.777C178.718 23.18 179.759 22.8814 180.969 22.8814C182.664 22.8814 184.003 23.4502 184.987 24.5878C185.98 25.7254 186.476 27.2866 186.476 29.2713C186.476 29.4891 186.468 29.707 186.452 29.9248C186.444 30.1346 186.431 30.3201 186.415 30.4815H177.944ZM180.994 24.8904C180.146 24.8904 179.445 25.1929 178.888 25.798C178.331 26.4031 178.012 27.3471 177.932 28.6299H183.85C183.825 27.4278 183.567 26.504 183.075 25.8585C182.591 25.2131 181.897 24.8904 180.994 24.8904ZM196.438 22.8814C197.568 22.8814 198.472 23.1598 199.149 23.7165C199.827 24.2651 200.319 25.0437 200.626 26.0522C200.932 27.0526 201.086 28.2305 201.086 29.5859C201.086 30.8849 200.9 32.0427 200.529 33.0592C200.158 34.0758 199.605 34.8745 198.871 35.4554C198.145 36.0363 197.241 36.3268 196.16 36.3268C194.821 36.3268 193.74 35.8548 192.917 34.9108V40.9134L190.206 41.216V23.2203H192.566L192.735 24.8662C193.219 24.2127 193.78 23.7205 194.417 23.3897C195.055 23.0509 195.728 22.8814 196.438 22.8814ZM195.688 24.9751C195.083 24.9751 194.546 25.1566 194.078 25.5197C193.619 25.8827 193.231 26.3103 192.917 26.8025V32.7809C193.554 33.7329 194.397 34.2089 195.446 34.2089C196.358 34.2089 197.052 33.8418 197.528 33.1076C198.004 32.3734 198.242 31.2036 198.242 29.5981C198.242 27.9602 198.028 26.7823 197.6 26.0643C197.181 25.3382 196.543 24.9751 195.688 24.9751ZM210.879 34.1C211.476 34.1 212.032 33.9951 212.549 33.7853C213.065 33.5756 213.557 33.3093 214.025 32.9866L215.284 34.7293C214.727 35.2053 214.049 35.5926 213.251 35.8911C212.46 36.1815 211.641 36.3268 210.794 36.3268C209.487 36.3268 208.366 36.0524 207.43 35.5038C206.502 34.9471 205.792 34.1726 205.3 33.1802C204.816 32.1798 204.574 31.0099 204.574 29.6707C204.574 28.3717 204.82 27.214 205.312 26.1974C205.812 25.1728 206.53 24.366 207.466 23.777C208.402 23.18 209.527 22.8814 210.842 22.8814C212.553 22.8814 214.029 23.3938 215.272 24.4184L214.025 26.1248C213.525 25.7779 213.013 25.5156 212.488 25.3382C211.964 25.1526 211.431 25.0598 210.891 25.0598C209.874 25.0598 209.047 25.4309 208.41 26.1732C207.773 26.9154 207.454 28.0813 207.454 29.6707C207.454 31.2681 207.777 32.4057 208.422 33.0834C209.067 33.7611 209.886 34.1 210.879 34.1ZM211.556 39.437C211.556 39.0497 211.367 38.7956 210.988 38.6745C210.616 38.5535 210.092 38.493 209.414 38.493L209.668 35.6127H211.339V37.2949C212.153 37.3756 212.746 37.6176 213.118 38.021C213.497 38.4325 213.686 38.9125 213.686 39.4612C213.686 40.268 213.376 40.8892 212.754 41.3249C212.133 41.7686 211.375 41.9905 210.479 41.9905C209.963 41.9905 209.471 41.9259 209.003 41.7969C208.543 41.6758 208.152 41.5225 207.829 41.337L208.579 39.9452C209.08 40.2115 209.612 40.3446 210.177 40.3446C210.588 40.3446 210.919 40.276 211.169 40.1389C211.427 40.0017 211.556 39.7678 211.556 39.437ZM228.998 32.8656C228.998 33.3739 229.075 33.741 229.228 33.9669C229.381 34.1928 229.627 34.3622 229.966 34.4752L229.361 36.3147C228.732 36.242 228.187 36.0686 227.727 35.7943C227.275 35.52 226.937 35.1045 226.711 34.5478C226.243 35.1448 225.65 35.5926 224.932 35.8911C224.214 36.1815 223.447 36.3268 222.632 36.3268C221.333 36.3268 220.309 35.9637 219.558 35.2376C218.808 34.5034 218.433 33.5433 218.433 32.3573C218.433 31.0099 218.957 29.9732 220.006 29.2471C221.055 28.521 222.556 28.1579 224.508 28.1579H226.336V27.3229C226.336 26.4919 226.085 25.8989 225.585 25.5439C225.085 25.1808 224.387 24.9993 223.492 24.9993C223.072 24.9993 222.564 25.0558 221.967 25.1687C221.37 25.2736 220.744 25.439 220.091 25.6649L219.425 23.7528C220.224 23.4543 221.007 23.2364 221.773 23.0993C222.54 22.9541 223.25 22.8814 223.903 22.8814C225.613 22.8814 226.888 23.2606 227.727 24.019C228.574 24.7774 228.998 25.8263 228.998 27.1656V32.8656ZM223.455 34.3299C224.004 34.3299 224.54 34.1847 225.065 33.8943C225.589 33.6038 226.013 33.1964 226.336 32.672V29.8522H224.835C223.56 29.8522 222.648 30.066 222.1 30.4936C221.551 30.9131 221.277 31.494 221.277 32.2363C221.277 33.632 222.003 34.3299 223.455 34.3299ZM225.549 20.2795C225.105 20.2795 224.726 20.1867 224.411 20.0012C224.105 19.8075 223.822 19.6179 223.564 19.4324C223.306 19.2388 223.036 19.1419 222.753 19.1419C222.471 19.1419 222.233 19.2347 222.039 19.4203C221.854 19.6058 221.664 19.8802 221.471 20.2432L219.946 19.4808C220.228 18.8354 220.599 18.2827 221.059 17.8228C221.527 17.3629 222.084 17.133 222.729 17.133C223.197 17.133 223.584 17.2298 223.891 17.4235C224.198 17.609 224.476 17.7986 224.726 17.9922C224.976 18.1778 225.246 18.2706 225.537 18.2706C225.787 18.2706 226.009 18.1859 226.202 18.0165C226.396 17.839 226.602 17.5727 226.82 17.2177L228.344 17.968C228.03 18.6942 227.635 19.263 227.159 19.6744C226.682 20.0778 226.146 20.2795 225.549 20.2795ZM238.864 22.8814C240.736 22.8814 242.164 23.4906 243.148 24.7088C244.132 25.9271 244.624 27.5528 244.624 29.5859C244.624 30.9414 244.398 32.1233 243.947 33.1318C243.503 34.1403 242.849 34.927 241.986 35.4917C241.131 36.0484 240.086 36.3268 238.852 36.3268C236.988 36.3268 235.56 35.7257 234.568 34.5236C233.575 33.3134 233.079 31.6756 233.079 29.6102C233.079 28.287 233.301 27.1212 233.745 26.1127C234.196 25.0961 234.854 24.3055 235.717 23.7407C236.581 23.1679 237.629 22.8814 238.864 22.8814ZM238.864 24.9872C237.888 24.9872 237.153 25.3624 236.661 26.1127C236.169 26.8549 235.923 28.0208 235.923 29.6102C235.923 31.1995 236.165 32.3694 236.649 33.1197C237.141 33.862 237.875 34.2331 238.852 34.2331C239.828 34.2331 240.558 33.8579 241.042 33.1076C241.534 32.3573 241.78 31.1834 241.78 29.5859C241.78 28.0127 241.538 26.8549 241.054 26.1127C240.57 25.3624 239.84 24.9872 238.864 24.9872ZM270.274 17.7865L272.985 18.0891V36H270.6L270.407 34.4267C269.971 35.0318 269.451 35.4998 268.846 35.8306C268.241 36.1614 267.563 36.3268 266.813 36.3268C265.715 36.3268 264.812 36.0484 264.102 35.4917C263.4 34.927 262.875 34.1403 262.528 33.1318C262.182 32.1233 262.008 30.9494 262.008 29.6102C262.008 28.3112 262.21 27.1575 262.613 26.149C263.017 25.1324 263.593 24.3337 264.344 23.7528C265.094 23.1719 265.998 22.8814 267.055 22.8814C268.37 22.8814 269.443 23.3454 270.274 24.2732V17.7865ZM267.769 24.963C266.857 24.963 266.147 25.3422 265.639 26.1006C265.13 26.8509 264.876 28.0208 264.876 29.6102C264.876 31.2399 265.106 32.4218 265.566 33.156C266.034 33.8822 266.687 34.2452 267.527 34.2452C268.14 34.2452 268.672 34.0677 269.124 33.7127C269.576 33.3577 269.959 32.9301 270.274 32.4299V26.3789C269.959 25.9271 269.592 25.5802 269.172 25.3382C268.753 25.088 268.285 24.963 267.769 24.963ZM279.534 30.4815C279.615 31.7966 279.982 32.7486 280.636 33.3376C281.297 33.9265 282.092 34.221 283.02 34.221C283.641 34.221 284.218 34.1242 284.75 33.9306C285.291 33.7369 285.831 33.4626 286.372 33.1076L287.546 34.7293C286.949 35.2134 286.251 35.6006 285.452 35.8911C284.654 36.1815 283.798 36.3268 282.887 36.3268C281.555 36.3268 280.43 36.0444 279.51 35.4796C278.598 34.9149 277.905 34.1282 277.429 33.1197C276.961 32.1112 276.727 30.9454 276.727 29.6223C276.727 28.3394 276.961 27.1938 277.429 26.1853C277.897 25.1687 278.566 24.366 279.438 23.777C280.309 23.18 281.35 22.8814 282.56 22.8814C284.254 22.8814 285.593 23.4502 286.578 24.5878C287.57 25.7254 288.066 27.2866 288.066 29.2713C288.066 29.4891 288.058 29.707 288.042 29.9248C288.034 30.1346 288.022 30.3201 288.006 30.4815H279.534ZM282.584 24.8904C281.737 24.8904 281.035 25.1929 280.478 25.798C279.922 26.4031 279.603 27.3471 279.522 28.6299H285.44C285.416 27.4278 285.158 26.504 284.666 25.8585C284.182 25.2131 283.488 24.8904 282.584 24.8904ZM312.469 34.1C313.066 34.1 313.623 33.9951 314.139 33.7853C314.656 33.5756 315.148 33.3093 315.616 32.9866L316.874 34.7293C316.318 35.2053 315.64 35.5926 314.841 35.8911C314.05 36.1815 313.232 36.3268 312.384 36.3268C311.077 36.3268 309.956 36.0524 309.02 35.5038C308.092 34.9471 307.382 34.1726 306.89 33.1802C306.406 32.1798 306.164 31.0099 306.164 29.6707C306.164 28.3717 306.41 27.214 306.902 26.1974C307.402 25.1728 308.121 24.366 309.056 23.777C309.992 23.18 311.118 22.8814 312.433 22.8814C314.143 22.8814 315.62 23.3938 316.862 24.4184L315.616 26.1248C315.115 25.7779 314.603 25.5156 314.079 25.3382C313.554 25.1526 313.022 25.0598 312.481 25.0598C311.465 25.0598 310.638 25.4309 310 26.1732C309.363 26.9154 309.044 28.0813 309.044 29.6707C309.044 31.2681 309.367 32.4057 310.012 33.0834C310.658 33.7611 311.477 34.1 312.469 34.1ZM330.588 32.8656C330.588 33.3739 330.665 33.741 330.818 33.9669C330.972 34.1928 331.218 34.3622 331.557 34.4752L330.952 36.3147C330.322 36.242 329.778 36.0686 329.318 35.7943C328.866 35.52 328.527 35.1045 328.301 34.5478C327.833 35.1448 327.24 35.5926 326.522 35.8911C325.804 36.1815 325.038 36.3268 324.223 36.3268C322.924 36.3268 321.899 35.9637 321.149 35.2376C320.399 34.5034 320.023 33.5433 320.023 32.3573C320.023 31.0099 320.548 29.9732 321.597 29.2471C322.646 28.521 324.146 28.1579 326.099 28.1579H327.926V27.3229C327.926 26.4919 327.676 25.8989 327.176 25.5439C326.676 25.1808 325.978 24.9993 325.082 24.9993C324.663 24.9993 324.154 25.0558 323.557 25.1687C322.96 25.2736 322.335 25.439 321.681 25.6649L321.016 23.7528C321.815 23.4543 322.597 23.2364 323.364 23.0993C324.13 22.9541 324.84 22.8814 325.494 22.8814C327.204 22.8814 328.479 23.2606 329.318 24.019C330.165 24.7774 330.588 25.8263 330.588 27.1656V32.8656ZM325.046 34.3299C325.594 34.3299 326.131 34.1847 326.655 33.8943C327.18 33.6038 327.603 33.1964 327.926 32.672V29.8522H326.425C325.151 29.8522 324.239 30.066 323.69 30.4936C323.142 30.9131 322.867 31.494 322.867 32.2363C322.867 33.632 323.594 34.3299 325.046 34.3299ZM340.95 18.0891V32.5146C340.95 33.1036 341.128 33.5231 341.483 33.7732C341.846 34.0153 342.314 34.1363 342.887 34.1363C343.25 34.1363 343.597 34.1 343.928 34.0274C344.266 33.9467 344.593 33.8418 344.908 33.7127L345.598 35.6006C345.218 35.7943 344.75 35.9637 344.194 36.1089C343.645 36.2541 343.016 36.3268 342.306 36.3268C341.023 36.3268 340.023 35.9637 339.305 35.2376C338.595 34.5115 338.24 33.5231 338.24 32.2726V20.0859H334.379V18.0891H340.95ZM354.967 22.8814C356.839 22.8814 358.267 23.4906 359.251 24.7088C360.236 25.9271 360.728 27.5528 360.728 29.5859C360.728 30.9414 360.502 32.1233 360.05 33.1318C359.606 34.1403 358.953 34.927 358.089 35.4917C357.234 36.0484 356.189 36.3268 354.955 36.3268C353.091 36.3268 351.663 35.7257 350.671 34.5236C349.679 33.3134 349.182 31.6756 349.182 29.6102C349.182 28.287 349.404 27.1212 349.848 26.1127C350.3 25.0961 350.957 24.3055 351.821 23.7407C352.684 23.1679 353.733 22.8814 354.967 22.8814ZM354.967 24.9872C353.991 24.9872 353.257 25.3624 352.765 26.1127C352.272 26.8549 352.026 28.0208 352.026 29.6102C352.026 31.1995 352.268 32.3694 352.753 33.1197C353.245 33.862 353.979 34.2331 354.955 34.2331C355.931 34.2331 356.661 33.8579 357.146 33.1076C357.638 32.3573 357.884 31.1834 357.884 29.5859C357.884 28.0127 357.642 26.8549 357.158 26.1127C356.674 25.3624 355.943 24.9872 354.967 24.9872ZM367.072 23.2203V32.1516C367.072 32.91 367.221 33.4505 367.52 33.7732C367.826 34.096 368.286 34.2573 368.899 34.2573C369.48 34.2573 370.041 34.0839 370.581 33.7369C371.122 33.39 371.55 32.9664 371.864 32.4662V23.2203H374.575V36H372.239L372.07 34.3662C371.594 35.0036 370.993 35.4917 370.267 35.8306C369.541 36.1614 368.798 36.3268 368.04 36.3268C366.797 36.3268 365.874 35.9879 365.269 35.3102C364.664 34.6244 364.361 33.6845 364.361 32.4904V23.2203H367.072ZM378.995 36V34.0637H380.871V25.1445H378.995V23.2203H382.94L383.436 26.1853C383.912 25.1122 384.501 24.2974 385.203 23.7407C385.913 23.1759 386.825 22.8936 387.938 22.8936C388.317 22.8936 388.656 22.9258 388.955 22.9904C389.261 23.0468 389.564 23.1235 389.862 23.2203L389.403 27.928H387.466V25.3261C386.563 25.3583 385.784 25.7214 385.131 26.4152C384.477 27.101 383.961 28.0692 383.582 29.3197V34.0637H386.159V36H378.995ZM398.506 22.8814C400.378 22.8814 401.806 23.4906 402.79 24.7088C403.774 25.9271 404.267 27.5528 404.267 29.5859C404.267 30.9414 404.041 32.1233 403.589 33.1318C403.145 34.1403 402.492 34.927 401.628 35.4917C400.773 36.0484 399.728 36.3268 398.494 36.3268C396.63 36.3268 395.202 35.7257 394.21 34.5236C393.217 33.3134 392.721 31.6756 392.721 29.6102C392.721 28.287 392.943 27.1212 393.387 26.1127C393.839 25.0961 394.496 24.3055 395.359 23.7407C396.223 23.1679 397.272 22.8814 398.506 22.8814ZM398.506 24.9872C397.53 24.9872 396.796 25.3624 396.303 26.1127C395.811 26.8549 395.565 28.0208 395.565 29.6102C395.565 31.1995 395.807 32.3694 396.291 33.1197C396.783 33.862 397.518 34.2331 398.494 34.2331C399.47 34.2331 400.2 33.8579 400.684 33.1076C401.176 32.3573 401.423 31.1834 401.423 29.5859C401.423 28.0127 401.18 26.8549 400.696 26.1127C400.212 25.3624 399.482 24.9872 398.506 24.9872ZM412.547 34.2452C413.394 34.2452 414.068 34.096 414.568 33.7974C415.068 33.4909 415.318 33.0713 415.318 32.5388C415.318 32.1919 415.246 31.8974 415.1 31.6554C414.955 31.4133 414.665 31.1874 414.229 30.9777C413.793 30.7679 413.132 30.5501 412.244 30.3242C411.405 30.1063 410.667 29.8482 410.03 29.5496C409.4 29.2511 408.912 28.8639 408.565 28.3879C408.218 27.9118 408.045 27.2987 408.045 26.5484C408.045 25.4511 408.501 24.5677 409.412 23.898C410.332 23.2203 411.579 22.8814 413.152 22.8814C414.225 22.8814 415.161 23.0226 415.96 23.305C416.758 23.5874 417.44 23.9384 418.005 24.3579L416.867 26.0643C416.367 25.7335 415.818 25.4632 415.221 25.2534C414.632 25.0437 413.967 24.9388 413.225 24.9388C412.361 24.9388 411.74 25.0679 411.361 25.3261C410.99 25.5842 410.804 25.9271 410.804 26.3547C410.804 26.6774 410.897 26.9437 411.083 27.1535C411.276 27.3632 411.607 27.5609 412.075 27.7464C412.543 27.932 413.204 28.1418 414.06 28.3758C414.891 28.6017 415.613 28.8679 416.226 29.1745C416.847 29.4811 417.327 29.8885 417.666 30.3968C418.013 30.897 418.186 31.5505 418.186 32.3573C418.186 33.2771 417.92 34.0314 417.388 34.6204C416.855 35.2013 416.161 35.6329 415.306 35.9153C414.451 36.1896 413.531 36.3268 412.547 36.3268C411.361 36.3268 410.336 36.1573 409.473 35.8185C408.61 35.4715 407.884 35.0399 407.295 34.5236L408.735 32.8777C409.235 33.2811 409.808 33.6119 410.453 33.8701C411.099 34.1202 411.797 34.2452 412.547 34.2452ZM441.355 18.9604C442.484 18.9604 443.445 19.1742 444.235 19.6018C445.026 20.0213 445.627 20.5901 446.038 21.3082C446.458 22.0182 446.668 22.8088 446.668 23.6802C446.668 24.4144 446.539 25.1324 446.28 25.8343C446.03 26.5282 445.623 27.2624 445.058 28.0369C444.501 28.8034 443.763 29.6586 442.843 30.6025C441.924 31.5384 440.798 32.6114 439.467 33.8216H447.055L446.74 36H436.357V33.9427C437.857 32.4985 439.092 31.2722 440.06 30.2637C441.036 29.2552 441.799 28.3838 442.347 27.6496C442.904 26.9154 443.295 26.2539 443.521 25.6649C443.747 25.0679 443.86 24.4628 443.86 23.8496C443.86 23.0105 443.622 22.349 443.146 21.8649C442.67 21.3808 442.008 21.1388 441.161 21.1388C440.411 21.1388 439.782 21.2759 439.273 21.5502C438.773 21.8245 438.277 22.2683 437.785 22.8814L436.018 21.5381C436.671 20.7071 437.422 20.0698 438.269 19.626C439.116 19.1823 440.145 18.9604 441.355 18.9604ZM456.546 18.9604C458.417 18.9604 459.833 19.7148 460.793 21.2235C461.753 22.7322 462.233 24.8662 462.233 27.6254C462.233 30.4008 461.753 32.5469 460.793 34.0637C459.833 35.5724 458.417 36.3268 456.546 36.3268C454.674 36.3268 453.258 35.5724 452.298 34.0637C451.338 32.5469 450.858 30.4008 450.858 27.6254C450.858 24.8662 451.338 22.7322 452.298 21.2235C453.258 19.7148 454.674 18.9604 456.546 18.9604ZM456.546 21.0298C455.585 21.0298 454.847 21.5422 454.331 22.5668C453.815 23.5834 453.556 25.2696 453.556 27.6254C453.556 29.3439 453.661 30.6832 453.871 31.6433L458.591 22.0101C458.357 21.6632 458.07 21.4131 457.732 21.2598C457.393 21.1065 456.997 21.0298 456.546 21.0298ZM459.535 27.6254C459.535 26.0844 459.45 24.8541 459.281 23.9343L454.621 33.4465C455.057 33.987 455.698 34.2573 456.546 34.2573C457.514 34.2573 458.252 33.749 458.76 32.7325C459.277 31.7159 459.535 30.0136 459.535 27.6254ZM470.381 18.9604C471.51 18.9604 472.47 19.1742 473.261 19.6018C474.052 20.0213 474.653 20.5901 475.064 21.3082C475.484 22.0182 475.694 22.8088 475.694 23.6802C475.694 24.4144 475.564 25.1324 475.306 25.8343C475.056 26.5282 474.649 27.2624 474.084 28.0369C473.527 28.8034 472.789 29.6586 471.869 30.6025C470.95 31.5384 469.824 32.6114 468.493 33.8216H476.081L475.766 36H465.383V33.9427C466.883 32.4985 468.118 31.2722 469.086 30.2637C470.062 29.2552 470.824 28.3838 471.373 27.6496C471.93 26.9154 472.321 26.2539 472.547 25.6649C472.773 25.0679 472.886 24.4628 472.886 23.8496C472.886 23.0105 472.648 22.349 472.172 21.8649C471.696 21.3808 471.034 21.1388 470.187 21.1388C469.437 21.1388 468.807 21.2759 468.299 21.5502C467.799 21.8245 467.303 22.2683 466.811 22.8814L465.044 21.5381C465.697 20.7071 466.448 20.0698 467.295 19.626C468.142 19.1823 469.171 18.9604 470.381 18.9604ZM491.138 33.8701V36H481.033V33.8701H485.112V22.0827L481.433 24.3458L480.271 22.4458L485.402 19.2993H487.798V33.8701H491.138Z" fill="#EEEEEE"/>
</svg>
